<svg xmlns="http://www.w3.org/2000/svg" width="64" height="72" viewBox="0 0 64 72" shape-rendering="crispEdges"><path d="M28 3h9v8l10 4 5 9 2 28 8 9v6H2v-6l8-9 2-28 5-9 11-4Z" fill="#171c29"/>
<path d="M30 5h5v10h-5Z" fill="#d4ad69"/><path d="M20 17 32 12 44 17 48 25 49 50 56 60H8l7-10 1-25Z" fill="#a98150"/>
<path d="M21 20 32 16 43 20 45 28H19Z" fill="#e1c18a"/><path d="M21 29h23v19H21Z" fill="#715345"/>
<path d="M26 29h13v8H26Z" fill="#1d2330"/><path d="M27 31h11v2H27Z" fill="#efb586"/>
<path d="M18 23h3v26l-6 9h-4l6-11Zm25 0h3l1 24 6 11h-4l-6-9Z" fill="#f0d6a0"/>
<path d="M9 58h46v6H9Z" fill="#d5b379"/><path d="M12 60h40v2H12Z" fill="#806242"/>
<path d="M28 65h9v5h-9Z" fill="#c7a16b"/><path d="M30 42h4v9h-4zm-5 4h14v2H25Z" fill="#c0a477"/>
<path d="M13 26h4v18h-4Zm35 0h4v18h-4Z" fill="#493c3b"/></svg>
